<mxfile host="app.diagrams.net" modified="2021-07-29T06:52:40.898Z" agent="5.0 (Macintosh; Intel Mac OS X 10_15_7) AppleWebKit/537.36 (KHTML, like Gecko) Chrome/92.0.4515.107 Safari/537.36" etag="TEGLUUvniu1rPhOZd7Dp" version="14.9.3" type="github">
  <diagram id="kgpKYQtTHZ0yAKxKKP6v" name="Page-1">
    <mxGraphModel dx="2046" dy="531" grid="1" gridSize="10" guides="1" tooltips="1" connect="1" arrows="1" fold="1" page="1" pageScale="1" pageWidth="1100" pageHeight="850" background="#F4F1DE" math="0" shadow="0">
      <root>
        <mxCell id="0" />
        <mxCell id="1" parent="0" />
        <mxCell id="3nuBFxr9cyL0pnOWT2aG-1" value="TradeQueryController" style="shape=umlLifeline;perimeter=lifelinePerimeter;container=1;collapsible=0;recursiveResize=0;shadow=0;strokeWidth=1;rounded=1;fillColor=#F2CC8F;strokeColor=#E07A5F;fontColor=#393C56;" parent="1" vertex="1">
          <mxGeometry x="70" y="80" width="150" height="300" as="geometry" />
        </mxCell>
        <mxCell id="3nuBFxr9cyL0pnOWT2aG-2" value="" style="points=[];perimeter=orthogonalPerimeter;shadow=0;strokeWidth=1;rounded=1;fillColor=#F2CC8F;strokeColor=#E07A5F;fontColor=#393C56;" parent="3nuBFxr9cyL0pnOWT2aG-1" vertex="1">
          <mxGeometry x="45" y="70" width="10" height="190" as="geometry" />
        </mxCell>
        <mxCell id="3nuBFxr9cyL0pnOWT2aG-3" value="获取同步码" style="verticalAlign=bottom;startArrow=oval;endArrow=block;startSize=8;shadow=0;strokeWidth=1;labelBackgroundColor=#F4F1DE;strokeColor=#E07A5F;fontColor=#393C56;" parent="3nuBFxr9cyL0pnOWT2aG-1" target="3nuBFxr9cyL0pnOWT2aG-2" edge="1">
          <mxGeometry relative="1" as="geometry">
            <mxPoint x="-50" y="70" as="sourcePoint" />
          </mxGeometry>
        </mxCell>
        <mxCell id="3nuBFxr9cyL0pnOWT2aG-4" value="" style="points=[];perimeter=orthogonalPerimeter;shadow=0;strokeWidth=1;rounded=1;fillColor=#F2CC8F;strokeColor=#E07A5F;fontColor=#393C56;" parent="3nuBFxr9cyL0pnOWT2aG-1" vertex="1">
          <mxGeometry x="50" y="120" width="10" height="80" as="geometry" />
        </mxCell>
        <mxCell id="3nuBFxr9cyL0pnOWT2aG-5" value="TradeQueryService" style="shape=umlLifeline;perimeter=lifelinePerimeter;container=1;collapsible=0;recursiveResize=0;shadow=0;strokeWidth=1;rounded=1;fillColor=#F2CC8F;strokeColor=#E07A5F;fontColor=#393C56;" parent="1" vertex="1">
          <mxGeometry x="300" y="80" width="140" height="300" as="geometry" />
        </mxCell>
        <mxCell id="3nuBFxr9cyL0pnOWT2aG-6" value="" style="points=[];perimeter=orthogonalPerimeter;shadow=0;strokeWidth=1;rounded=1;fillColor=#F2CC8F;strokeColor=#E07A5F;fontColor=#393C56;" parent="3nuBFxr9cyL0pnOWT2aG-5" vertex="1">
          <mxGeometry x="45" y="80" width="10" height="160" as="geometry" />
        </mxCell>
        <mxCell id="3nuBFxr9cyL0pnOWT2aG-7" value="return" style="verticalAlign=bottom;endArrow=open;dashed=1;endSize=8;exitX=0;exitY=0.95;shadow=0;strokeWidth=1;labelBackgroundColor=#F4F1DE;strokeColor=#E07A5F;fontColor=#393C56;" parent="1" source="3nuBFxr9cyL0pnOWT2aG-6" target="3nuBFxr9cyL0pnOWT2aG-2" edge="1">
          <mxGeometry relative="1" as="geometry">
            <mxPoint x="275" y="236" as="targetPoint" />
          </mxGeometry>
        </mxCell>
        <mxCell id="3nuBFxr9cyL0pnOWT2aG-8" value="dispatch" style="verticalAlign=bottom;endArrow=block;entryX=0;entryY=0;shadow=0;strokeWidth=1;labelBackgroundColor=#F4F1DE;strokeColor=#E07A5F;fontColor=#393C56;" parent="1" source="3nuBFxr9cyL0pnOWT2aG-2" target="3nuBFxr9cyL0pnOWT2aG-6" edge="1">
          <mxGeometry relative="1" as="geometry">
            <mxPoint x="275" y="160" as="sourcePoint" />
          </mxGeometry>
        </mxCell>
        <mxCell id="3nuBFxr9cyL0pnOWT2aG-9" value="callback" style="verticalAlign=bottom;endArrow=block;entryX=1;entryY=0;shadow=0;strokeWidth=1;labelBackgroundColor=#F4F1DE;strokeColor=#E07A5F;fontColor=#393C56;" parent="1" source="3nuBFxr9cyL0pnOWT2aG-6" target="3nuBFxr9cyL0pnOWT2aG-4" edge="1">
          <mxGeometry relative="1" as="geometry">
            <mxPoint x="240" y="200" as="sourcePoint" />
          </mxGeometry>
        </mxCell>
        <mxCell id="3nuBFxr9cyL0pnOWT2aG-10" value="return" style="verticalAlign=bottom;endArrow=open;dashed=1;endSize=8;exitX=1;exitY=0.95;shadow=0;strokeWidth=1;labelBackgroundColor=#F4F1DE;strokeColor=#E07A5F;fontColor=#393C56;" parent="1" source="3nuBFxr9cyL0pnOWT2aG-4" target="3nuBFxr9cyL0pnOWT2aG-6" edge="1">
          <mxGeometry relative="1" as="geometry">
            <mxPoint x="240" y="257" as="targetPoint" />
          </mxGeometry>
        </mxCell>
        <mxCell id="RdxSyApWsiTOnNlZj5HY-6" value="TradeQueryController" style="shape=umlLifeline;perimeter=lifelinePerimeter;container=1;collapsible=0;recursiveResize=0;shadow=0;strokeWidth=1;rounded=1;fillColor=#F2CC8F;strokeColor=#E07A5F;fontColor=#393C56;" vertex="1" parent="1">
          <mxGeometry x="55" y="430" width="150" height="1050" as="geometry" />
        </mxCell>
        <mxCell id="RdxSyApWsiTOnNlZj5HY-7" value="" style="points=[];perimeter=orthogonalPerimeter;shadow=0;strokeWidth=1;rounded=1;fillColor=#F2CC8F;strokeColor=#E07A5F;fontColor=#393C56;" vertex="1" parent="RdxSyApWsiTOnNlZj5HY-6">
          <mxGeometry x="45" y="70" width="10" height="235" as="geometry" />
        </mxCell>
        <mxCell id="RdxSyApWsiTOnNlZj5HY-8" value="1.getSyncTradeCode" style="verticalAlign=bottom;startArrow=oval;endArrow=block;startSize=8;shadow=0;strokeWidth=1;labelBackgroundColor=#F4F1DE;strokeColor=#E07A5F;fontColor=#393C56;" edge="1" parent="RdxSyApWsiTOnNlZj5HY-6" target="RdxSyApWsiTOnNlZj5HY-7">
          <mxGeometry relative="1" as="geometry">
            <mxPoint x="-75" y="70" as="sourcePoint" />
          </mxGeometry>
        </mxCell>
        <mxCell id="RdxSyApWsiTOnNlZj5HY-10" value="TradeQueryService" style="shape=umlLifeline;perimeter=lifelinePerimeter;container=1;collapsible=0;recursiveResize=0;shadow=0;strokeWidth=1;rounded=1;fillColor=#F2CC8F;strokeColor=#E07A5F;fontColor=#393C56;" vertex="1" parent="1">
          <mxGeometry x="320" y="430" width="140" height="1050" as="geometry" />
        </mxCell>
        <mxCell id="RdxSyApWsiTOnNlZj5HY-11" value="" style="points=[];perimeter=orthogonalPerimeter;shadow=0;strokeWidth=1;rounded=1;fillColor=#F2CC8F;strokeColor=#E07A5F;fontColor=#393C56;" vertex="1" parent="RdxSyApWsiTOnNlZj5HY-10">
          <mxGeometry x="45" y="80" width="10" height="230" as="geometry" />
        </mxCell>
        <mxCell id="RdxSyApWsiTOnNlZj5HY-32" value="" style="endArrow=classic;html=1;entryX=0.95;entryY=0.215;entryDx=0;entryDy=0;entryPerimeter=0;labelBackgroundColor=#F4F1DE;strokeColor=#E07A5F;fontColor=#393C56;" edge="1" parent="RdxSyApWsiTOnNlZj5HY-10" target="RdxSyApWsiTOnNlZj5HY-11">
          <mxGeometry width="50" height="50" relative="1" as="geometry">
            <mxPoint x="56" y="100" as="sourcePoint" />
            <mxPoint x="105" y="100" as="targetPoint" />
            <Array as="points">
              <mxPoint x="155" y="100" />
              <mxPoint x="155" y="130" />
            </Array>
          </mxGeometry>
        </mxCell>
        <mxCell id="RdxSyApWsiTOnNlZj5HY-33" value="&lt;span style=&quot;font-size: 12px&quot;&gt;3.根据搜索条件生成Md5 同步码&lt;/span&gt;&lt;br style=&quot;padding: 0px ; margin: 0px ; font-size: 12px&quot;&gt;" style="edgeLabel;html=1;align=center;verticalAlign=middle;resizable=0;points=[];rounded=1;labelBackgroundColor=none;fontColor=#393C56;" vertex="1" connectable="0" parent="RdxSyApWsiTOnNlZj5HY-32">
          <mxGeometry x="-0.0329" relative="1" as="geometry">
            <mxPoint as="offset" />
          </mxGeometry>
        </mxCell>
        <mxCell id="RdxSyApWsiTOnNlZj5HY-39" value="" style="endArrow=classic;html=1;labelBackgroundColor=#F4F1DE;strokeColor=#E07A5F;fontColor=#393C56;entryX=1.2;entryY=0.454;entryDx=0;entryDy=0;entryPerimeter=0;exitX=1.2;exitY=0.309;exitDx=0;exitDy=0;exitPerimeter=0;" edge="1" parent="RdxSyApWsiTOnNlZj5HY-10" source="RdxSyApWsiTOnNlZj5HY-11" target="RdxSyApWsiTOnNlZj5HY-11">
          <mxGeometry width="50" height="50" relative="1" as="geometry">
            <mxPoint x="55" y="140.31999999999994" as="sourcePoint" />
            <mxPoint x="55" y="210" as="targetPoint" />
            <Array as="points">
              <mxPoint x="155" y="151" />
              <mxPoint x="155" y="184" />
            </Array>
          </mxGeometry>
        </mxCell>
        <mxCell id="RdxSyApWsiTOnNlZj5HY-40" value="&lt;span style=&quot;font-size: 12px&quot;&gt;4.根据同步码获取Reids随机码&lt;/span&gt;" style="edgeLabel;html=1;align=center;verticalAlign=middle;resizable=0;points=[];rounded=1;labelBackgroundColor=none;fontColor=#393C56;" vertex="1" connectable="0" parent="RdxSyApWsiTOnNlZj5HY-39">
          <mxGeometry x="-0.0329" relative="1" as="geometry">
            <mxPoint as="offset" />
          </mxGeometry>
        </mxCell>
        <mxCell id="RdxSyApWsiTOnNlZj5HY-41" value="" style="endArrow=classic;html=1;labelBackgroundColor=#F4F1DE;strokeColor=#E07A5F;fontColor=#393C56;entryX=0.95;entryY=0.847;entryDx=0;entryDy=0;entryPerimeter=0;exitX=1.117;exitY=0.53;exitDx=0;exitDy=0;exitPerimeter=0;" edge="1" parent="RdxSyApWsiTOnNlZj5HY-10" source="RdxSyApWsiTOnNlZj5HY-11" target="RdxSyApWsiTOnNlZj5HY-11">
          <mxGeometry width="50" height="50" relative="1" as="geometry">
            <mxPoint x="55" y="210" as="sourcePoint" />
            <mxPoint x="53.67000000000007" y="241.25" as="targetPoint" />
            <Array as="points">
              <mxPoint x="155" y="202" />
              <mxPoint x="155" y="275" />
            </Array>
          </mxGeometry>
        </mxCell>
        <mxCell id="RdxSyApWsiTOnNlZj5HY-42" value="&lt;span style=&quot;font-size: 12px&quot;&gt;5.同步码存在直接返回&lt;br&gt;如果不存在&lt;br&gt;则生成新随机码用同步码当Key进行缓存&lt;br&gt;并将搜索条件+随机写入表中&lt;br&gt;&lt;/span&gt;" style="edgeLabel;html=1;align=center;verticalAlign=middle;resizable=0;points=[];rounded=1;labelBackgroundColor=none;fontColor=#393C56;" vertex="1" connectable="0" parent="RdxSyApWsiTOnNlZj5HY-41">
          <mxGeometry x="-0.0329" relative="1" as="geometry">
            <mxPoint as="offset" />
          </mxGeometry>
        </mxCell>
        <mxCell id="RdxSyApWsiTOnNlZj5HY-13" value="2.generateTradeCode" style="verticalAlign=bottom;endArrow=block;entryX=0;entryY=0;shadow=0;strokeWidth=1;labelBackgroundColor=#F4F1DE;strokeColor=#E07A5F;fontColor=#393C56;" edge="1" parent="1" source="RdxSyApWsiTOnNlZj5HY-7" target="RdxSyApWsiTOnNlZj5HY-11">
          <mxGeometry relative="1" as="geometry">
            <mxPoint x="260" y="510" as="sourcePoint" />
            <mxPoint as="offset" />
          </mxGeometry>
        </mxCell>
        <mxCell id="RdxSyApWsiTOnNlZj5HY-17" value="生成同步码" style="edgeLabel;html=1;align=center;verticalAlign=middle;resizable=0;points=[];rounded=1;labelBackgroundColor=#F4F1DE;fontColor=#393C56;" vertex="1" connectable="0" parent="RdxSyApWsiTOnNlZj5HY-13">
          <mxGeometry x="-0.0879" y="-1" relative="1" as="geometry">
            <mxPoint x="10" y="9" as="offset" />
          </mxGeometry>
        </mxCell>
        <mxCell id="RdxSyApWsiTOnNlZj5HY-16" value="获取同步码" style="text;html=1;align=center;verticalAlign=middle;resizable=0;points=[];autosize=1;strokeColor=none;rounded=1;fontColor=#393C56;" vertex="1" parent="1">
          <mxGeometry x="-10" y="500" width="80" height="20" as="geometry" />
        </mxCell>
        <mxCell id="RdxSyApWsiTOnNlZj5HY-21" value="6.return SyncTradeCodeVo" style="verticalAlign=bottom;endArrow=open;dashed=1;endSize=8;exitX=0.033;exitY=0.882;shadow=0;strokeWidth=1;exitDx=0;exitDy=0;exitPerimeter=0;labelBackgroundColor=#F4F1DE;strokeColor=#E07A5F;fontColor=#393C56;entryX=1.283;entryY=0.895;entryDx=0;entryDy=0;entryPerimeter=0;" edge="1" parent="1" source="RdxSyApWsiTOnNlZj5HY-11" target="RdxSyApWsiTOnNlZj5HY-7">
          <mxGeometry relative="1" as="geometry">
            <mxPoint x="105" y="651" as="targetPoint" />
            <mxPoint x="355" y="321.9999999999999" as="sourcePoint" />
          </mxGeometry>
        </mxCell>
        <mxCell id="RdxSyApWsiTOnNlZj5HY-22" value="返回同步码+随机码" style="edgeLabel;html=1;align=center;verticalAlign=middle;resizable=0;points=[];rounded=1;labelBackgroundColor=#F4F1DE;fontColor=#393C56;" vertex="1" connectable="0" parent="RdxSyApWsiTOnNlZj5HY-21">
          <mxGeometry x="0.1316" y="1" relative="1" as="geometry">
            <mxPoint x="17" y="8" as="offset" />
          </mxGeometry>
        </mxCell>
        <mxCell id="RdxSyApWsiTOnNlZj5HY-23" value="" style="endArrow=none;dashed=1;html=1;labelBackgroundColor=#F4F1DE;strokeColor=#E07A5F;fontColor=#393C56;" edge="1" parent="1">
          <mxGeometry width="50" height="50" relative="1" as="geometry">
            <mxPoint x="-110" y="750" as="sourcePoint" />
            <mxPoint x="890" y="750" as="targetPoint" />
          </mxGeometry>
        </mxCell>
        <mxCell id="RdxSyApWsiTOnNlZj5HY-24" value="" style="points=[];perimeter=orthogonalPerimeter;shadow=0;strokeWidth=1;rounded=1;fillColor=#F2CC8F;strokeColor=#E07A5F;fontColor=#393C56;" vertex="1" parent="1">
          <mxGeometry x="100" y="790" width="10" height="550" as="geometry" />
        </mxCell>
        <mxCell id="RdxSyApWsiTOnNlZj5HY-28" value="1.SyncTrade" style="verticalAlign=bottom;startArrow=oval;endArrow=block;startSize=8;shadow=0;strokeWidth=1;entryX=0.117;entryY=-0.003;entryDx=0;entryDy=0;entryPerimeter=0;labelBackgroundColor=#F4F1DE;strokeColor=#E07A5F;fontColor=#393C56;" edge="1" parent="1" target="RdxSyApWsiTOnNlZj5HY-24">
          <mxGeometry relative="1" as="geometry">
            <mxPoint x="-30" y="790" as="sourcePoint" />
            <mxPoint x="90" y="790" as="targetPoint" />
          </mxGeometry>
        </mxCell>
        <mxCell id="RdxSyApWsiTOnNlZj5HY-29" value="执行同步" style="text;html=1;align=center;verticalAlign=middle;resizable=0;points=[];autosize=1;strokeColor=none;rounded=1;fontColor=#393C56;" vertex="1" parent="1">
          <mxGeometry y="790" width="60" height="20" as="geometry" />
        </mxCell>
        <mxCell id="RdxSyApWsiTOnNlZj5HY-35" value="" style="endArrow=classic;html=1;labelBackgroundColor=#F4F1DE;strokeColor=#E07A5F;fontColor=#393C56;" edge="1" parent="1" source="RdxSyApWsiTOnNlZj5HY-24">
          <mxGeometry width="50" height="50" relative="1" as="geometry">
            <mxPoint x="120" y="810" as="sourcePoint" />
            <mxPoint x="111" y="840" as="targetPoint" />
            <Array as="points">
              <mxPoint x="190" y="810" />
              <mxPoint x="190" y="840" />
            </Array>
          </mxGeometry>
        </mxCell>
        <mxCell id="RdxSyApWsiTOnNlZj5HY-36" value="2.是否开启全部降级level=3" style="edgeLabel;html=1;align=center;verticalAlign=middle;resizable=0;points=[];rounded=1;labelBackgroundColor=#F4F1DE;fontColor=#393C56;" vertex="1" connectable="0" parent="RdxSyApWsiTOnNlZj5HY-35">
          <mxGeometry x="-0.1285" y="2" relative="1" as="geometry">
            <mxPoint y="15" as="offset" />
          </mxGeometry>
        </mxCell>
        <mxCell id="RdxSyApWsiTOnNlZj5HY-37" value="" style="endArrow=classic;html=1;exitX=1.033;exitY=0.065;exitDx=0;exitDy=0;exitPerimeter=0;labelBackgroundColor=#F4F1DE;strokeColor=#E07A5F;fontColor=#393C56;" edge="1" parent="1">
          <mxGeometry width="50" height="50" relative="1" as="geometry">
            <mxPoint x="110.00000000000016" y="860" as="sourcePoint" />
            <mxPoint x="110.66999999999977" y="890.5" as="targetPoint" />
            <Array as="points">
              <mxPoint x="190" y="861" />
              <mxPoint x="190" y="891" />
            </Array>
          </mxGeometry>
        </mxCell>
        <mxCell id="RdxSyApWsiTOnNlZj5HY-38" value="3.根据同步码获取随机码" style="edgeLabel;html=1;align=center;verticalAlign=middle;resizable=0;points=[];rounded=1;labelBackgroundColor=#F4F1DE;fontColor=#393C56;" vertex="1" connectable="0" parent="RdxSyApWsiTOnNlZj5HY-37">
          <mxGeometry x="-0.1285" y="2" relative="1" as="geometry">
            <mxPoint y="15" as="offset" />
          </mxGeometry>
        </mxCell>
        <mxCell id="RdxSyApWsiTOnNlZj5HY-44" value="" style="endArrow=classic;html=1;exitX=1.033;exitY=0.065;exitDx=0;exitDy=0;exitPerimeter=0;labelBackgroundColor=#F4F1DE;strokeColor=#E07A5F;fontColor=#393C56;" edge="1" parent="1">
          <mxGeometry width="50" height="50" relative="1" as="geometry">
            <mxPoint x="110.00000000000045" y="910" as="sourcePoint" />
            <mxPoint x="110.66999999999962" y="940.5" as="targetPoint" />
            <Array as="points">
              <mxPoint x="190" y="911" />
              <mxPoint x="190" y="941" />
            </Array>
          </mxGeometry>
        </mxCell>
        <mxCell id="RdxSyApWsiTOnNlZj5HY-45" value="4.根据随机码获取搜索条件" style="edgeLabel;html=1;align=center;verticalAlign=middle;resizable=0;points=[];rounded=1;labelBackgroundColor=#F4F1DE;fontColor=#393C56;" vertex="1" connectable="0" parent="RdxSyApWsiTOnNlZj5HY-44">
          <mxGeometry x="-0.1285" y="2" relative="1" as="geometry">
            <mxPoint y="15" as="offset" />
          </mxGeometry>
        </mxCell>
        <mxCell id="RdxSyApWsiTOnNlZj5HY-47" value="" style="endArrow=classic;html=1;exitX=1.033;exitY=0.065;exitDx=0;exitDy=0;exitPerimeter=0;labelBackgroundColor=#F4F1DE;strokeColor=#E07A5F;fontColor=#393C56;" edge="1" parent="1">
          <mxGeometry width="50" height="50" relative="1" as="geometry">
            <mxPoint x="110.00000000000045" y="960" as="sourcePoint" />
            <mxPoint x="110.66999999999962" y="990.5" as="targetPoint" />
            <Array as="points">
              <mxPoint x="190" y="961" />
              <mxPoint x="190" y="991" />
            </Array>
          </mxGeometry>
        </mxCell>
        <mxCell id="RdxSyApWsiTOnNlZj5HY-48" value="5.判断搜索条件是否触发降级" style="edgeLabel;html=1;align=center;verticalAlign=middle;resizable=0;points=[];rounded=1;labelBackgroundColor=#F4F1DE;fontColor=#393C56;" vertex="1" connectable="0" parent="RdxSyApWsiTOnNlZj5HY-47">
          <mxGeometry x="-0.1285" y="2" relative="1" as="geometry">
            <mxPoint y="15" as="offset" />
          </mxGeometry>
        </mxCell>
        <mxCell id="RdxSyApWsiTOnNlZj5HY-49" value="触发降级" style="verticalAlign=bottom;endArrow=open;dashed=1;endSize=8;shadow=0;strokeWidth=1;labelBackgroundColor=#F4F1DE;strokeColor=#E07A5F;fontColor=#393C56;fontStyle=2" edge="1" parent="1">
          <mxGeometry relative="1" as="geometry">
            <mxPoint x="20" y="847" as="targetPoint" />
            <mxPoint x="100" y="847" as="sourcePoint" />
          </mxGeometry>
        </mxCell>
        <mxCell id="RdxSyApWsiTOnNlZj5HY-52" value="同步码已过期" style="verticalAlign=bottom;endArrow=open;dashed=1;endSize=8;shadow=0;strokeWidth=1;labelBackgroundColor=#F4F1DE;strokeColor=#E07A5F;fontColor=#393C56;fontStyle=2" edge="1" parent="1">
          <mxGeometry relative="1" as="geometry">
            <mxPoint x="20" y="900" as="targetPoint" />
            <mxPoint x="100" y="900" as="sourcePoint" />
          </mxGeometry>
        </mxCell>
        <mxCell id="RdxSyApWsiTOnNlZj5HY-53" value="结束" style="verticalAlign=bottom;endArrow=open;dashed=1;endSize=8;shadow=0;strokeWidth=1;labelBackgroundColor=#F4F1DE;strokeColor=#E07A5F;fontColor=#393C56;" edge="1" parent="1">
          <mxGeometry relative="1" as="geometry">
            <mxPoint x="20" y="720" as="targetPoint" />
            <mxPoint x="100" y="720" as="sourcePoint" />
          </mxGeometry>
        </mxCell>
        <mxCell id="RdxSyApWsiTOnNlZj5HY-54" value="触发降级" style="verticalAlign=bottom;endArrow=open;dashed=1;endSize=8;shadow=0;strokeWidth=1;labelBackgroundColor=#F4F1DE;strokeColor=#E07A5F;fontColor=#393C56;fontStyle=2" edge="1" parent="1">
          <mxGeometry relative="1" as="geometry">
            <mxPoint x="20" y="1000" as="targetPoint" />
            <mxPoint x="100" y="1000" as="sourcePoint" />
          </mxGeometry>
        </mxCell>
        <mxCell id="RdxSyApWsiTOnNlZj5HY-55" value="" style="endArrow=classic;html=1;exitX=1.033;exitY=0.065;exitDx=0;exitDy=0;exitPerimeter=0;labelBackgroundColor=#F4F1DE;strokeColor=#E07A5F;fontColor=#393C56;" edge="1" parent="1">
          <mxGeometry width="50" height="50" relative="1" as="geometry">
            <mxPoint x="110.00000000000045" y="1010" as="sourcePoint" />
            <mxPoint x="110.66999999999962" y="1040.5" as="targetPoint" />
            <Array as="points">
              <mxPoint x="190" y="1011" />
              <mxPoint x="190" y="1041" />
            </Array>
          </mxGeometry>
        </mxCell>
        <mxCell id="RdxSyApWsiTOnNlZj5HY-56" value="6.判断导入时间间隔" style="edgeLabel;html=1;align=center;verticalAlign=middle;resizable=0;points=[];rounded=1;labelBackgroundColor=#F4F1DE;fontColor=#393C56;" vertex="1" connectable="0" parent="RdxSyApWsiTOnNlZj5HY-55">
          <mxGeometry x="-0.1285" y="2" relative="1" as="geometry">
            <mxPoint y="15" as="offset" />
          </mxGeometry>
        </mxCell>
        <mxCell id="RdxSyApWsiTOnNlZj5HY-57" value="超出限制" style="verticalAlign=bottom;endArrow=open;dashed=1;endSize=8;shadow=0;strokeWidth=1;labelBackgroundColor=#F4F1DE;strokeColor=#E07A5F;fontColor=#393C56;fontStyle=2" edge="1" parent="1">
          <mxGeometry relative="1" as="geometry">
            <mxPoint x="20" y="1050" as="targetPoint" />
            <mxPoint x="100" y="1050" as="sourcePoint" />
          </mxGeometry>
        </mxCell>
        <mxCell id="RdxSyApWsiTOnNlZj5HY-66" value="" style="points=[];perimeter=orthogonalPerimeter;shadow=0;strokeWidth=1;rounded=1;fillColor=#F2CC8F;strokeColor=#E07A5F;fontColor=#393C56;" vertex="1" parent="1">
          <mxGeometry x="110" y="1070" width="10" height="230" as="geometry" />
        </mxCell>
        <mxCell id="RdxSyApWsiTOnNlZj5HY-68" value="" style="points=[];perimeter=orthogonalPerimeter;shadow=0;strokeWidth=1;rounded=1;fillColor=#F2CC8F;strokeColor=#E07A5F;fontColor=#393C56;" vertex="1" parent="1">
          <mxGeometry x="365" y="1070" width="10" height="410" as="geometry" />
        </mxCell>
        <mxCell id="RdxSyApWsiTOnNlZj5HY-72" value="7.submitQueryTask" style="verticalAlign=bottom;endArrow=block;shadow=0;strokeWidth=1;labelBackgroundColor=#F4F1DE;strokeColor=#E07A5F;fontColor=#393C56;entryX=-0.1;entryY=0.024;entryDx=0;entryDy=0;entryPerimeter=0;" edge="1" parent="1" target="RdxSyApWsiTOnNlZj5HY-68">
          <mxGeometry relative="1" as="geometry">
            <mxPoint x="120" y="1080" as="sourcePoint" />
            <mxPoint x="360" y="1076" as="targetPoint" />
            <mxPoint as="offset" />
          </mxGeometry>
        </mxCell>
        <mxCell id="RdxSyApWsiTOnNlZj5HY-73" value="提交任务" style="edgeLabel;html=1;align=center;verticalAlign=middle;resizable=0;points=[];rounded=1;labelBackgroundColor=#F4F1DE;fontColor=#393C56;" vertex="1" connectable="0" parent="RdxSyApWsiTOnNlZj5HY-72">
          <mxGeometry x="-0.0879" y="-1" relative="1" as="geometry">
            <mxPoint x="10" y="9" as="offset" />
          </mxGeometry>
        </mxCell>
        <mxCell id="RdxSyApWsiTOnNlZj5HY-82" value="TradeTaskHandle" style="shape=umlLifeline;perimeter=lifelinePerimeter;container=1;collapsible=0;recursiveResize=0;shadow=0;strokeWidth=1;rounded=1;fillColor=#F2CC8F;strokeColor=#E07A5F;fontColor=#393C56;" vertex="1" parent="1">
          <mxGeometry x="570" y="430" width="140" height="1050" as="geometry" />
        </mxCell>
        <mxCell id="RdxSyApWsiTOnNlZj5HY-90" value="8.当前任务是否已提交" style="endArrow=classic;html=1;fontColor=#393C56;strokeColor=#E07A5F;fillColor=#F2CC8F;elbow=vertical;labelBackgroundColor=none;" edge="1" parent="1">
          <mxGeometry width="50" height="50" relative="1" as="geometry">
            <mxPoint x="375" y="1090" as="sourcePoint" />
            <mxPoint x="375" y="1120" as="targetPoint" />
            <Array as="points">
              <mxPoint x="440" y="1090" />
              <mxPoint x="440" y="1120" />
            </Array>
          </mxGeometry>
        </mxCell>
        <mxCell id="RdxSyApWsiTOnNlZj5HY-91" value="重复请求" style="verticalAlign=bottom;endArrow=open;dashed=1;endSize=8;shadow=0;strokeWidth=1;labelBackgroundColor=#F4F1DE;strokeColor=#E07A5F;fontColor=#393C56;fontStyle=2;entryX=1;entryY=0.265;entryDx=0;entryDy=0;entryPerimeter=0;" edge="1" parent="1" target="RdxSyApWsiTOnNlZj5HY-66">
          <mxGeometry relative="1" as="geometry">
            <mxPoint x="120" y="1131" as="targetPoint" />
            <mxPoint x="365" y="1130" as="sourcePoint" />
          </mxGeometry>
        </mxCell>
        <mxCell id="RdxSyApWsiTOnNlZj5HY-93" value="9.查询条件校验" style="endArrow=classic;html=1;fontColor=#393C56;strokeColor=#E07A5F;fillColor=#F2CC8F;elbow=vertical;labelBackgroundColor=none;" edge="1" parent="1">
          <mxGeometry width="50" height="50" relative="1" as="geometry">
            <mxPoint x="375" y="1140" as="sourcePoint" />
            <mxPoint x="375" y="1170" as="targetPoint" />
            <Array as="points">
              <mxPoint x="440" y="1140" />
              <mxPoint x="440" y="1170" />
            </Array>
          </mxGeometry>
        </mxCell>
        <mxCell id="RdxSyApWsiTOnNlZj5HY-94" value="非法参数" style="verticalAlign=bottom;endArrow=open;dashed=1;endSize=8;shadow=0;strokeWidth=1;labelBackgroundColor=#F4F1DE;strokeColor=#E07A5F;fontColor=#393C56;fontStyle=2" edge="1" parent="1">
          <mxGeometry relative="1" as="geometry">
            <mxPoint x="120" y="1185.5" as="targetPoint" />
            <mxPoint x="365" y="1184.5" as="sourcePoint" />
          </mxGeometry>
        </mxCell>
      </root>
    </mxGraphModel>
  </diagram>
</mxfile>
